<?xml version="1.0" standalone="no"?>
<!DOCTYPE svg PUBLIC "-//W3C//DTD SVG 20010904//EN"
 "http://www.w3.org/TR/2001/REC-SVG-20010904/DTD/svg10.dtd">
<svg version="1.0" xmlns="http://www.w3.org/2000/svg"
 width="512.000000pt" height="512.000000pt" viewBox="0 0 512.000000 512.000000"
 preserveAspectRatio="xMidYMid meet">
<metadata>
Created by potrace 1.14, written by Peter Selinger 2001-2017
</metadata>
<g transform="translate(0.000000,512.000000) scale(0.100000,-0.100000)"
fill="#000000" stroke="none">
<path d="M2707 4196 c-69 -26 -132 -86 -157 -150 -8 -21 -44 -215 -66 -351 -5
-35 -95 -559 -99 -585 -3 -14 -16 -90 -30 -170 -14 -80 -27 -154 -29 -165 -2
-11 -7 -40 -11 -65 -4 -25 -9 -54 -11 -65 -2 -11 -15 -87 -29 -169 -14 -82
-27 -161 -30 -175 -3 -14 -8 -42 -11 -61 -7 -45 -12 -73 -24 -140 -5 -30 -12
-73 -15 -95 -4 -22 -8 -47 -10 -55 -3 -8 -7 -33 -10 -55 -7 -41 -12 -72 -20
-115 -2 -14 -9 -52 -14 -85 -11 -69 -67 -388 -79 -455 -26 -142 39 -265 167
-316 55 -22 160 -15 217 14 47 24 100 81 120 128 11 26 41 182 69 349 11 71
18 109 30 180 8 44 17 94 19 110 3 17 19 111 36 210 17 99 44 257 60 350 39
231 74 436 146 850 26 151 46 266 50 295 3 19 7 42 9 50 4 14 7 29 20 113 3
17 10 57 15 87 13 75 18 108 26 155 3 22 9 60 14 84 8 44 7 53 -6 116 -14 67
-73 137 -141 171 -49 23 -156 29 -206 10z"/>
<path d="M1585 3909 c-22 -3 -56 -13 -76 -22 -23 -10 -249 -228 -617 -594
-447 -445 -586 -588 -601 -623 -28 -61 -28 -159 0 -220 28 -63 1157 -1188
1223 -1219 224 -105 460 132 352 353 -20 40 -127 152 -486 510 -253 253 -460
462 -460 466 0 4 205 211 456 461 250 250 467 473 481 496 35 60 42 147 17
219 -40 117 -166 193 -289 173z"/>
<path d="M3451 3908 c-128 -22 -209 -115 -219 -250 -8 -118 -11 -115 508 -632
253 -253 460 -463 460 -466 0 -4 -209 -215 -464 -470 -512 -510 -508 -505
-507 -623 0 -147 118 -262 267 -260 113 2 103 -6 739 627 556 555 584 583 601
636 9 30 16 77 15 103 -5 106 1 99 -621 718 -328 327 -594 584 -614 593 -50
24 -114 33 -165 24z"/>
</g>
</svg>
